<?xml version="1.0" encoding="UTF-8" standalone="no"?>
<svg
   xmlns:dc="http://purl.org/dc/elements/1.1/"
   xmlns:cc="http://creativecommons.org/ns#"
   xmlns:rdf="http://www.w3.org/1999/02/22-rdf-syntax-ns#"
   xmlns:svg="http://www.w3.org/2000/svg"
   xmlns="http://www.w3.org/2000/svg"
   xmlns:sodipodi="http://sodipodi.sourceforge.net/DTD/sodipodi-0.dtd"
   xmlns:inkscape="http://www.inkscape.org/namespaces/inkscape"
   version="1.1"
   width="24"
   height="24"
   viewBox="0 0 24 24"
   id="svg74"
   sodipodi:docname="media-seek-backward.svg"
   inkscape:version="1.0.1 (3bc2e813f5, 2020-09-07)">
  <metadata
     id="metadata80">
    <rdf:RDF>
      <cc:Work
         rdf:about="">
        <dc:format>image/svg+xml</dc:format>
        <dc:type
           rdf:resource="http://purl.org/dc/dcmitype/StillImage" />
      </cc:Work>
    </rdf:RDF>
  </metadata>
  <defs
     id="defs78" />
  <sodipodi:namedview
     pagecolor="#ffffff"
     bordercolor="#666666"
     borderopacity="1"
     objecttolerance="10"
     gridtolerance="10"
     guidetolerance="10"
     inkscape:pageopacity="0"
     inkscape:pageshadow="2"
     inkscape:window-width="755"
     inkscape:window-height="480"
     id="namedview76"
     showgrid="false"
     inkscape:zoom="21.583333"
     inkscape:cx="12"
     inkscape:cy="12"
     inkscape:window-x="32"
     inkscape:window-y="32"
     inkscape:window-maximized="0"
     inkscape:current-layer="svg74" />
  <path
     d="M12.5,3C17.15,3 21.08,6.03 22.47,10.22L20.1,11C19.05,7.81 16.04,5.5 12.5,5.5C10.54,5.5 8.77,6.22 7.38,7.38L10,10H3V3L5.6,5.6C7.45,4 9.85,3 12.5,3M10,12V22H8V14H6V12H10M18,14V20C18,21.11 17.11,22 16,22H14A2,2 0 0,1 12,20V14A2,2 0 0,1 14,12H16C17.11,12 18,12.9 18,14M14,14V20H16V14H14Z"
     id="path72"
     style="fill:#ffffff" />
</svg>
