<?xml version="1.0" encoding="UTF-8" standalone="no"?>
<svg
   xmlns:dc="http://purl.org/dc/elements/1.1/"
   xmlns:cc="http://creativecommons.org/ns#"
   xmlns:rdf="http://www.w3.org/1999/02/22-rdf-syntax-ns#"
   xmlns:svg="http://www.w3.org/2000/svg"
   xmlns="http://www.w3.org/2000/svg"
   version="1.1"
   id="svg875"
   xml:space="preserve"
   width="128"
   height="128"
   viewBox="0 0 128 128"><metadata
     id="metadata881"><rdf:RDF><cc:Work
         rdf:about=""><dc:format>image/svg+xml</dc:format><dc:type
           rdf:resource="http://purl.org/dc/dcmitype/StillImage" /><dc:title></dc:title></cc:Work></rdf:RDF></metadata><defs
     id="defs879"><clipPath
       clipPathUnits="userSpaceOnUse"
       id="clipPath893"><path
         d="M 0,500 H 500 V 0 H 0 Z"
         id="path891" /></clipPath><clipPath
       clipPathUnits="userSpaceOnUse"
       id="clipPath905"><path
         d="M 68.0273,343.354 H 319.116 V 78.9531 H 68.0273 Z"
         id="path903" /></clipPath><clipPath
       clipPathUnits="userSpaceOnUse"
       id="clipPath909"><path
         d="m 304.692,255.089 c 0.039,-0.051 0.083,-0.091 0.117,-0.155 -0.034,0.065 -0.073,0.117 -0.117,0.155"
         clip-rule="evenodd"
         id="path907" /></clipPath><linearGradient
       x1="0"
       y1="0"
       x2="1"
       y2="0"
       gradientUnits="userSpaceOnUse"
       gradientTransform="matrix(-0.0203141,-0.0203141,-0.0203141,0.0203141,304.76074,255.02246)"
       spreadMethod="pad"
       id="linearGradient919"><stop
         style="stop-opacity:1;stop-color:#ffffff"
         offset="0"
         id="stop915" /><stop
         style="stop-opacity:0;stop-color:#ffffff"
         offset="1"
         id="stop917" /></linearGradient><mask
       maskUnits="userSpaceOnUse"
       x="0"
       y="0"
       width="1"
       height="1"
       id="mask921"><g
         id="g931"><g
           id="g929"><g
             id="g927"><g
               id="g925"><path
                 d="M -32768,32767 H 32767 V -32768 H -32768 Z"
                 style="fill:url(#linearGradient919);stroke:none"
                 id="path923" /></g></g></g></g></mask><linearGradient
       x1="0"
       y1="0"
       x2="1"
       y2="0"
       gradientUnits="userSpaceOnUse"
       gradientTransform="matrix(-0.0203141,-0.0203141,-0.0203141,0.0203141,304.76074,255.02246)"
       spreadMethod="pad"
       id="linearGradient937"><stop
         style="stop-opacity:1;stop-color:#000000"
         offset="0"
         id="stop933" /><stop
         style="stop-opacity:1;stop-color:#000000"
         offset="1"
         id="stop935" /></linearGradient><clipPath
       clipPathUnits="userSpaceOnUse"
       id="clipPath941"><path
         d="m 304.742,255.02 c 0,0 -0.001,10e-4 -0.002,10e-4 0.005,-0.007 0.011,-0.014 0.016,-0.021 h 0.001 c -0.005,0.006 -0.01,0.013 -0.015,0.02"
         clip-rule="evenodd"
         id="path939" /></clipPath><linearGradient
       x1="0"
       y1="0"
       x2="1"
       y2="0"
       gradientUnits="userSpaceOnUse"
       gradientTransform="matrix(-0.0030696,-0.0030696,-0.0030696,0.0030696,304.75,255.01172)"
       spreadMethod="pad"
       id="linearGradient951"><stop
         style="stop-opacity:1;stop-color:#ffffff"
         offset="0"
         id="stop947" /><stop
         style="stop-opacity:0;stop-color:#ffffff"
         offset="1"
         id="stop949" /></linearGradient><mask
       maskUnits="userSpaceOnUse"
       x="0"
       y="0"
       width="1"
       height="1"
       id="mask953"><g
         id="g963"><g
           id="g961"><g
             id="g959"><g
               id="g957"><path
                 d="M -32768,32767 H 32767 V -32768 H -32768 Z"
                 style="fill:url(#linearGradient951);stroke:none"
                 id="path955" /></g></g></g></g></mask><linearGradient
       x1="0"
       y1="0"
       x2="1"
       y2="0"
       gradientUnits="userSpaceOnUse"
       gradientTransform="matrix(-0.0030696,-0.0030696,-0.0030696,0.0030696,304.75,255.01172)"
       spreadMethod="pad"
       id="linearGradient969"><stop
         style="stop-opacity:1;stop-color:#000000"
         offset="0"
         id="stop965" /><stop
         style="stop-opacity:1;stop-color:#000000"
         offset="1"
         id="stop967" /></linearGradient><clipPath
       clipPathUnits="userSpaceOnUse"
       id="clipPath973"><path
         d="m 304.678,255.108 c 0.005,-0.004 0.009,-0.014 0.014,-0.019 -0.005,0.007 -0.008,0.014 -0.014,0.019"
         clip-rule="evenodd"
         id="path971" /></clipPath><linearGradient
       x1="0"
       y1="0"
       x2="1"
       y2="0"
       gradientUnits="userSpaceOnUse"
       gradientTransform="matrix(-0.0024169,-0.0024169,-0.0024169,0.0024169,304.68652,255.1001)"
       spreadMethod="pad"
       id="linearGradient983"><stop
         style="stop-opacity:1;stop-color:#ffffff"
         offset="0"
         id="stop979" /><stop
         style="stop-opacity:0;stop-color:#ffffff"
         offset="1"
         id="stop981" /></linearGradient><mask
       maskUnits="userSpaceOnUse"
       x="0"
       y="0"
       width="1"
       height="1"
       id="mask985"><g
         id="g995"><g
           id="g993"><g
             id="g991"><g
               id="g989"><path
                 d="M -32768,32767 H 32767 V -32768 H -32768 Z"
                 style="fill:url(#linearGradient983);stroke:none"
                 id="path987" /></g></g></g></g></mask><linearGradient
       x1="0"
       y1="0"
       x2="1"
       y2="0"
       gradientUnits="userSpaceOnUse"
       gradientTransform="matrix(-0.0024169,-0.0024169,-0.0024169,0.0024169,304.68652,255.1001)"
       spreadMethod="pad"
       id="linearGradient1001"><stop
         style="stop-opacity:1;stop-color:#000000"
         offset="0"
         id="stop997" /><stop
         style="stop-opacity:1;stop-color:#000000"
         offset="1"
         id="stop999" /></linearGradient><clipPath
       clipPathUnits="userSpaceOnUse"
       id="clipPath1005"><path
         d="m 304.787,254.961 0.002,-0.002 c 0.006,-0.01 0.014,-0.016 0.02,-0.026 -0.006,0.011 -0.015,0.016 -0.022,0.028 m 0.022,-0.027 c -0.014,0.027 -0.034,0.045 -0.05,0.066 h -0.002 c 0.018,-0.021 0.037,-0.041 0.052,-0.07 -0.015,0.029 -0.035,0.048 -0.053,0.07 h -0.141 c -0.052,0 -0.103,0.174 -0.156,0.198 -0.209,0.127 -0.453,0.215 -0.715,0.192 -0.49,0.062 -1.006,0.034 -1.256,-0.187 -0.052,-0.004 -0.109,0 -0.159,0 0,-2.386 -2.478,-3.493 -4.188,-4.595 -3.022,-1.947 -5.448,-4.627 -8.102,-7.014 -5.813,-5.234 -11.982,-10.049 -18.001,-15.04 -5.815,-4.824 -11.591,-9.72 -16.868,-15.137 -2.407,-2.472 -5.547,-4.008 -8.238,-6.123 -0.989,-0.777 -1.864,-1.827 -3.149,-2.11 -1.808,-0.398 -3.51,0.529 -5.231,0.898 6.962,5.789 13.71,11.828 20.626,17.672 5.784,4.887 12.278,9.353 16.142,16.047 4.06,7.035 4.166,15.416 4.182,23.308 0.018,9.186 -0.016,18.373 0.061,27.559 0.116,13.988 3.058,30.014 -6.419,41.848 -8.21,10.252 -23.468,13.575 -35.434,8.487 -7.173,-3.05 -12.766,-8.653 -18.456,-13.8 -6.608,-5.974 -13.457,-11.672 -20.229,-17.457 -14.048,-12 -28.097,-24 -42.084,-36.072 -27.037,-23.341 -53.206,-47.716 -81.271,-69.843 -2.479,-1.954 -5.057,-3.845 -7.643,-5.747 15.01,-52.713 52.31,-96.029 101.057,-119.131 6.478,5.432 12.936,10.892 19.277,16.488 13.771,12.151 27.619,24.213 41.537,36.194 6.696,5.762 13.453,11.506 20.563,16.756 2.921,2.157 6.187,4.263 8.137,7.42 2.188,3.543 1.72,7.613 1.828,11.575 0.187,6.894 4.183,12.502 9.178,16.926 6.331,5.612 13.566,10.008 20.004,15.496 16.198,13.803 29.508,33.192 29.508,55.192 h -14.357 c 0.016,-0.023 0.035,-0.038 0.05,-0.066"
         clip-rule="evenodd"
         id="path1003" /></clipPath><linearGradient
       x1="0"
       y1="0"
       x2="1"
       y2="0"
       gradientUnits="userSpaceOnUse"
       gradientTransform="matrix(-186.71352,-186.71352,-186.71352,186.71352,296.25684,309.62988)"
       spreadMethod="pad"
       id="linearGradient1015"><stop
         style="stop-opacity:1;stop-color:#ffffff"
         offset="0"
         id="stop1011" /><stop
         style="stop-opacity:0;stop-color:#ffffff"
         offset="1"
         id="stop1013" /></linearGradient><mask
       maskUnits="userSpaceOnUse"
       x="0"
       y="0"
       width="1"
       height="1"
       id="mask1017"><g
         id="g1027"><g
           id="g1025"><g
             id="g1023"><g
               id="g1021"><path
                 d="M -32768,32767 H 32767 V -32768 H -32768 Z"
                 style="fill:url(#linearGradient1015);stroke:none"
                 id="path1019" /></g></g></g></g></mask><linearGradient
       x1="0"
       y1="0"
       x2="1"
       y2="0"
       gradientUnits="userSpaceOnUse"
       gradientTransform="matrix(-186.71352,-186.71352,-186.71352,186.71352,296.25684,309.62988)"
       spreadMethod="pad"
       id="linearGradient1033"><stop
         style="stop-opacity:1;stop-color:#000000"
         offset="0"
         id="stop1029" /><stop
         style="stop-opacity:1;stop-color:#000000"
         offset="1"
         id="stop1031" /></linearGradient><clipPath
       clipPathUnits="userSpaceOnUse"
       id="clipPath1037"><path
         d="m 304.692,255.089 c 0,0.001 -0.001,0.001 -0.001,0.001 0.023,-0.029 0.044,-0.061 0.068,-0.09 -0.022,0.031 -0.043,0.065 -0.067,0.089"
         clip-rule="evenodd"
         id="path1035" /></clipPath><linearGradient
       x1="0"
       y1="0"
       x2="1"
       y2="0"
       gradientUnits="userSpaceOnUse"
       gradientTransform="matrix(-0.0114909,-0.0114909,-0.0114909,0.0114909,304.73145,255.05029)"
       spreadMethod="pad"
       id="linearGradient1047"><stop
         style="stop-opacity:1;stop-color:#ffffff"
         offset="0"
         id="stop1043" /><stop
         style="stop-opacity:0;stop-color:#ffffff"
         offset="1"
         id="stop1045" /></linearGradient><mask
       maskUnits="userSpaceOnUse"
       x="0"
       y="0"
       width="1"
       height="1"
       id="mask1049"><g
         id="g1059"><g
           id="g1057"><g
             id="g1055"><g
               id="g1053"><path
                 d="M -32768,32767 H 32767 V -32768 H -32768 Z"
                 style="fill:url(#linearGradient1047);stroke:none"
                 id="path1051" /></g></g></g></g></mask><linearGradient
       x1="0"
       y1="0"
       x2="1"
       y2="0"
       gradientUnits="userSpaceOnUse"
       gradientTransform="matrix(-0.0114909,-0.0114909,-0.0114909,0.0114909,304.73145,255.05029)"
       spreadMethod="pad"
       id="linearGradient1065"><stop
         style="stop-opacity:1;stop-color:#000000"
         offset="0"
         id="stop1061" /><stop
         style="stop-opacity:1;stop-color:#000000"
         offset="1"
         id="stop1063" /></linearGradient></defs><g
     id="g883"
     transform="matrix(1.3333333,0,0,-1.3333333,0,666.66667)"><g
       id="g887"
       transform="matrix(0.2378599,0,0,0.2378599,-11.464974,392.53504)"><g
         id="g889"
         clip-path="url(#clipPath893)"><g
           id="g895"
           transform="translate(250,439.1875)"><path
             d="m 0,0 c -104.486,0 -189.187,-84.7 -189.187,-189.187 0,-104.485 84.701,-189.188 189.187,-189.188 104.482,0 189.187,84.703 189.187,189.188 C 189.187,-84.7 104.482,0 0,0"
             style="fill:#ef8321;fill-opacity:1;fill-rule:evenodd;stroke:none"
             id="path897" /></g><g
           id="g899"><g
             id="g901" /><g
             id="g1139"><g
               clip-path="url(#clipPath905)"
               opacity="0.419998"
               id="g1137"><g
                 id="g1079"><g
                   clip-path="url(#clipPath909)"
                   id="g1077"><g
                     id="g1075"><g
                       id="g1067" /><g
                       mask="url(#mask921)"
                       id="g1073"><g
                         id="g1071"><path
                           d="m 304.692,255.089 c 0.039,-0.051 0.083,-0.091 0.117,-0.155 -0.034,0.065 -0.073,0.117 -0.117,0.155"
                           style="fill:url(#linearGradient937);fill-rule:evenodd;stroke:none"
                           id="path1069" /></g></g></g></g></g><g
                 id="g1093"><g
                   clip-path="url(#clipPath941)"
                   id="g1091"><g
                     id="g1089"><g
                       id="g1081" /><g
                       mask="url(#mask953)"
                       id="g1087"><g
                         id="g1085"><path
                           d="m 304.742,255.02 c 0,0 -0.001,10e-4 -0.002,10e-4 0.005,-0.007 0.011,-0.014 0.016,-0.021 h 0.001 c -0.005,0.006 -0.01,0.013 -0.015,0.02"
                           style="fill:url(#linearGradient969);fill-rule:evenodd;stroke:none"
                           id="path1083" /></g></g></g></g></g><g
                 id="g1107"><g
                   clip-path="url(#clipPath973)"
                   id="g1105"><g
                     id="g1103"><g
                       id="g1095" /><g
                       mask="url(#mask985)"
                       id="g1101"><g
                         id="g1099"><path
                           d="m 304.678,255.108 c 0.005,-0.004 0.009,-0.014 0.014,-0.019 -0.005,0.007 -0.008,0.014 -0.014,0.019"
                           style="fill:url(#linearGradient1001);fill-rule:evenodd;stroke:none"
                           id="path1097" /></g></g></g></g></g><g
                 id="g1121"><g
                   clip-path="url(#clipPath1005)"
                   id="g1119"><g
                     id="g1117"><g
                       id="g1109" /><g
                       mask="url(#mask1017)"
                       id="g1115"><g
                         id="g1113"><path
                           d="m 304.787,254.961 0.002,-0.002 c 0.006,-0.01 0.014,-0.016 0.02,-0.026 -0.006,0.011 -0.015,0.016 -0.022,0.028 m 0.022,-0.027 c -0.014,0.027 -0.034,0.045 -0.05,0.066 h -0.002 c 0.018,-0.021 0.037,-0.041 0.052,-0.07 -0.015,0.029 -0.035,0.048 -0.053,0.07 h -0.141 c -0.052,0 -0.103,0.174 -0.156,0.198 -0.209,0.127 -0.453,0.215 -0.715,0.192 -0.49,0.062 -1.006,0.034 -1.256,-0.187 -0.052,-0.004 -0.109,0 -0.159,0 0,-2.386 -2.478,-3.493 -4.188,-4.595 -3.022,-1.947 -5.448,-4.627 -8.102,-7.014 -5.813,-5.234 -11.982,-10.049 -18.001,-15.04 -5.815,-4.824 -11.591,-9.72 -16.868,-15.137 -2.407,-2.472 -5.547,-4.008 -8.238,-6.123 -0.989,-0.777 -1.864,-1.827 -3.149,-2.11 -1.808,-0.398 -3.51,0.529 -5.231,0.898 6.962,5.789 13.71,11.828 20.626,17.672 5.784,4.887 12.278,9.353 16.142,16.047 4.06,7.035 4.166,15.416 4.182,23.308 0.018,9.186 -0.016,18.373 0.061,27.559 0.116,13.988 3.058,30.014 -6.419,41.848 -8.21,10.252 -23.468,13.575 -35.434,8.487 -7.173,-3.05 -12.766,-8.653 -18.456,-13.8 -6.608,-5.974 -13.457,-11.672 -20.229,-17.457 -14.048,-12 -28.097,-24 -42.084,-36.072 -27.037,-23.341 -53.206,-47.716 -81.271,-69.843 -2.479,-1.954 -5.057,-3.845 -7.643,-5.747 15.01,-52.713 52.31,-96.029 101.057,-119.131 6.478,5.432 12.936,10.892 19.277,16.488 13.771,12.151 27.619,24.213 41.537,36.194 6.696,5.762 13.453,11.506 20.563,16.756 2.921,2.157 6.187,4.263 8.137,7.42 2.188,3.543 1.72,7.613 1.828,11.575 0.187,6.894 4.183,12.502 9.178,16.926 6.331,5.612 13.566,10.008 20.004,15.496 16.198,13.803 29.508,33.192 29.508,55.192 h -14.357 c 0.016,-0.023 0.035,-0.038 0.05,-0.066"
                           style="fill:url(#linearGradient1033);fill-rule:evenodd;stroke:none"
                           id="path1111" /></g></g></g></g></g><g
                 id="g1135"><g
                   clip-path="url(#clipPath1037)"
                   id="g1133"><g
                     id="g1131"><g
                       id="g1123" /><g
                       mask="url(#mask1049)"
                       id="g1129"><g
                         id="g1127"><path
                           d="m 304.692,255.089 c 0,0.001 -0.001,0.001 -0.001,0.001 0.023,-0.029 0.044,-0.061 0.068,-0.09 -0.022,0.031 -0.043,0.065 -0.067,0.089"
                           style="fill:url(#linearGradient1065);fill-rule:evenodd;stroke:none"
                           id="path1125" /></g></g></g></g></g></g></g></g><g
           id="g1141"
           transform="translate(250,225.3154)"><path
             d="m 0,0 c 16.344,0 29.525,13.278 29.525,29.622 l 0.096,59.242 c 0,16.393 -13.229,29.621 -29.621,29.621 -16.344,0 -29.621,-13.228 -29.621,-29.621 V 29.622 C -29.621,13.278 -16.344,0 0,0"
             style="fill:#ffffff;fill-opacity:1;fill-rule:nonzero;stroke:none"
             id="path1143" /></g><g
           id="g1145"
           transform="translate(250,204.5801)"><path
             d="m 0,0 c -27.249,0 -52.329,20.735 -52.329,50.357 h -16.787 c 0,-33.719 26.853,-61.561 59.242,-66.349 V -48.381 H 9.874 v 32.389 c 32.389,4.788 59.242,32.63 59.242,66.349 H 52.329 C 52.329,20.735 27.298,0 0,0"
             style="fill:#ffffff;fill-opacity:1;fill-rule:nonzero;stroke:none"
             id="path1147" /></g></g></g></g></svg>
