<?xml version="1.0" encoding="UTF-8" standalone="no"?>
<svg
   xmlns:dc="http://purl.org/dc/elements/1.1/"
   xmlns:cc="http://creativecommons.org/ns#"
   xmlns:rdf="http://www.w3.org/1999/02/22-rdf-syntax-ns#"
   xmlns:svg="http://www.w3.org/2000/svg"
   xmlns="http://www.w3.org/2000/svg"
   xmlns:sodipodi="http://sodipodi.sourceforge.net/DTD/sodipodi-0.dtd"
   xmlns:inkscape="http://www.inkscape.org/namespaces/inkscape"
   width="128"
   height="128"
   viewBox="0 0 33.866666 33.866668"
   version="1.1"
   id="svg8"
   inkscape:version="1.0.1 (3bc2e813f5, 2020-09-07)"
   sodipodi:docname="no-cover.svg">
  <defs
     id="defs2" />
  <sodipodi:namedview
     id="base"
     pagecolor="#ffffff"
     bordercolor="#666666"
     borderopacity="1.0"
     inkscape:pageopacity="0.0"
     inkscape:pageshadow="2"
     inkscape:zoom="1"
     inkscape:cx="169"
     inkscape:cy="193"
     inkscape:document-units="px"
     inkscape:current-layer="layer1"
     inkscape:document-rotation="0"
     showgrid="false"
     units="px"
     inkscape:window-width="1334"
     inkscape:window-height="712"
     inkscape:window-x="32"
     inkscape:window-y="32"
     inkscape:window-maximized="1" />
  <metadata
     id="metadata5">
    <rdf:RDF>
      <cc:Work
         rdf:about="">
        <dc:format>image/svg+xml</dc:format>
        <dc:type
           rdf:resource="http://purl.org/dc/dcmitype/StillImage" />
        <dc:title></dc:title>
      </cc:Work>
    </rdf:RDF>
  </metadata>
  <g
     inkscape:label="Capa 1"
     inkscape:groupmode="layer"
     id="layer1">
    <rect
       style="color:#000000;overflow:visible;opacity:1;fill:#388e3c;stroke-width:0.258;stroke-linecap:round;stroke-linejoin:bevel;stroke-opacity:0;paint-order:stroke markers fill"
       id="rect890"
       width="35.308407"
       height="33.78685"
       x="-1.1157346"
       y="0.33814958" />
    <path
       d="m 22.980944,25.097622 v 3.930948 h -12.09522 v -3.930948 c 0,-1.669143 2.7093,-3.023813 6.04759,-3.023813 3.33828,0 6.04763,1.35467 6.04763,3.023813 M 16.933314,9.676191 a 7.861905,7.861905 0 0 1 7.86194,7.861906 c 0,1.511904 -0.42331,2.927045 -1.16114,4.124476 l -1.86268,-1.657047 c 0.3872,-0.737811 0.60476,-1.584476 0.60476,-2.467429 0,-3.023812 -2.41907,-5.442857 -5.44288,-5.442857 -3.02377,0 -5.44284,2.419045 -5.44284,5.442857 0,0.882953 0.2176,1.729618 0.60476,2.467429 l -1.86268,1.657047 C 9.4947735,20.465142 9.0714135,19.050001 9.0714135,17.538097 A 7.861905,7.861905 0 0 1 16.933314,9.676191 m 0,-4.838094 a 12.7,12.7 0 0 1 12.70002,12.7 c 0,2.757714 -0.88297,5.30981 -2.37065,7.39019 l -1.81431,-1.63286 c 1.11278,-1.64495 1.7659,-3.628571 1.7659,-5.75733 A 10.280953,10.280953 0 0 0 16.933314,7.257142 10.280953,10.280953 0 0 0 6.6523935,17.538097 c 0,2.128759 0.65312,4.11238 1.7659,5.75733 l -1.81431,1.63286 c -1.48768,-2.08038 -2.37065,-4.632476 -2.37065,-7.39019 a 12.7,12.7 0 0 1 12.6999795,-12.7 m 0,9.676188 a 3.0238096,3.0238096 0 0 1 3.02381,3.023812 3.0238096,3.0238096 0 0 1 -3.02381,3.023808 3.0238096,3.0238096 0 0 1 -3.02377,-3.023808 3.0238096,3.0238096 0 0 1 3.02377,-3.023812 z"
       id="path879"
       style="stroke-width:1.20952;fill:#ffffff" />
  </g>
</svg>
